<svg width="249" height="249" viewBox="0 0 249 249" fill="none" xmlns="http://www.w3.org/2000/svg">
<rect width="249" height="249" fill="#0C2340"/>
<rect x="20" y="95" width="203" height="67" rx="12" fill="#DE9C00"/>
<path d="M57.65 51.95C56.5833 51.0833 55.5167 50.45 54.45 50.05C53.3833 49.6167 52.35 49.4 51.35 49.4C50.0833 49.4 49.05 49.7 48.25 50.3C47.45 50.9 47.05 51.6833 47.05 52.65C47.05 53.3167 47.25 53.8667 47.65 54.3C48.05 54.7333 48.5667 55.1167 49.2 55.45C49.8667 55.75 50.6 56.0167 51.4 56.25C52.2333 56.4833 53.05 56.7333 53.85 57C57.05 58.0667 59.3833 59.5 60.85 61.3C62.35 63.0667 63.1 65.3833 63.1 68.25C63.1 70.1833 62.7667 71.9333 62.1 73.5C61.4667 75.0667 60.5167 76.4167 59.25 77.55C58.0167 78.65 56.4833 79.5 54.65 80.1C52.85 80.7333 50.8 81.05 48.5 81.05C43.7333 81.05 39.3167 79.6333 35.25 76.8L39.45 68.9C40.9167 70.2 42.3667 71.1667 43.8 71.8C45.2333 72.4333 46.65 72.75 48.05 72.75C49.65 72.75 50.8333 72.3833 51.6 71.65C52.4 70.9167 52.8 70.0833 52.8 69.15C52.8 68.5833 52.7 68.1 52.5 67.7C52.3 67.2667 51.9667 66.8833 51.5 66.55C51.0333 66.1833 50.4167 65.85 49.65 65.55C48.9167 65.25 48.0167 64.9167 46.95 64.55C45.6833 64.15 44.4333 63.7167 43.2 63.25C42 62.75 40.9167 62.1 39.95 61.3C39.0167 60.5 38.25 59.5 37.65 58.3C37.0833 57.0667 36.8 55.5167 36.8 53.65C36.8 51.7833 37.1 50.1 37.7 48.6C38.3333 47.0667 39.2 45.7667 40.3 44.7C41.4333 43.6 42.8 42.75 44.4 42.15C46.0333 41.55 47.85 41.25 49.85 41.25C51.7167 41.25 53.6667 41.5167 55.7 42.05C57.7333 42.55 59.6833 43.3 61.55 44.3L57.65 51.95Z" fill="#DE9C00"/>
<path d="M126.95 79V41.3H136.75L154.85 64.35V41.3H164.6V79H154.85L136.75 55.95V79H126.95ZM192.307 70.7H194.557C196.257 70.7 197.773 70.4333 199.107 69.9C200.44 69.3667 201.557 68.6333 202.457 67.7C203.39 66.7667 204.09 65.6667 204.557 64.4C205.057 63.1 205.307 61.6833 205.307 60.15C205.307 58.65 205.057 57.25 204.557 55.95C204.057 54.65 203.34 53.5333 202.407 52.6C201.507 51.6667 200.39 50.9333 199.057 50.4C197.723 49.8667 196.223 49.6 194.557 49.6H192.307V70.7ZM182.507 41.3H197.007C199.573 41.3 201.973 41.8167 204.207 42.85C206.473 43.8833 208.44 45.2667 210.107 47C211.807 48.7 213.14 50.7 214.107 53C215.073 55.2667 215.557 57.65 215.557 60.15C215.557 62.6167 215.073 65 214.107 67.3C213.173 69.5667 211.857 71.5667 210.157 73.3C208.49 75.0333 206.523 76.4167 204.257 77.45C202.023 78.4833 199.607 79 197.007 79H182.507V41.3Z" fill="#DE9C00"/>
<path d="M46.75 178.3V207.7H58.5V216H36.95V178.3H46.75ZM95.6238 202L91.2238 189.45L86.8238 202H95.6238ZM98.2238 209.45H84.2238L81.9738 216H71.5238L85.8738 178.3H96.5738L110.924 216H100.474L98.2238 209.45ZM135.012 208.4H137.162C139.628 208.4 141.395 208.083 142.462 207.45C143.528 206.817 144.062 205.8 144.062 204.4C144.062 203 143.528 201.983 142.462 201.35C141.395 200.717 139.628 200.4 137.162 200.4H135.012V208.4ZM135.012 193.1H136.812C139.878 193.1 141.412 191.883 141.412 189.45C141.412 187.017 139.878 185.8 136.812 185.8H135.012V193.1ZM125.212 178.3H139.812C143.278 178.3 145.912 179.133 147.712 180.8C149.512 182.467 150.412 184.867 150.412 188C150.412 189.9 150.062 191.483 149.362 192.75C148.695 193.983 147.662 195.033 146.262 195.9C147.662 196.167 148.845 196.583 149.812 197.15C150.812 197.683 151.612 198.35 152.212 199.15C152.845 199.95 153.295 200.85 153.562 201.85C153.828 202.85 153.962 203.917 153.962 205.05C153.962 206.817 153.645 208.383 153.012 209.75C152.412 211.117 151.545 212.267 150.412 213.2C149.312 214.133 147.962 214.833 146.362 215.3C144.762 215.767 142.962 216 140.962 216H125.212V178.3Z" fill="#DE9C00"/>
<path d="M124.95 77V39.3H134.75L152.85 62.35V39.3H162.6V77H152.85L134.75 53.95V77H124.95ZM190.307 68.7H192.557C194.257 68.7 195.773 68.4333 197.107 67.9C198.44 67.3667 199.557 66.6333 200.457 65.7C201.39 64.7667 202.09 63.6667 202.557 62.4C203.057 61.1 203.307 59.6833 203.307 58.15C203.307 56.65 203.057 55.25 202.557 53.95C202.057 52.65 201.34 51.5333 200.407 50.6C199.507 49.6667 198.39 48.9333 197.057 48.4C195.723 47.8667 194.223 47.6 192.557 47.6H190.307V68.7ZM180.507 39.3H195.007C197.573 39.3 199.973 39.8167 202.207 40.85C204.473 41.8833 206.44 43.2667 208.107 45C209.807 46.7 211.14 48.7 212.107 51C213.073 53.2667 213.557 55.65 213.557 58.15C213.557 60.6167 213.073 63 212.107 65.3C211.173 67.5667 209.857 69.5667 208.157 71.3C206.49 73.0333 204.523 74.4167 202.257 75.45C200.023 76.4833 197.607 77 195.007 77H180.507V39.3Z" fill="white"/>
<path d="M55.65 49.95C54.5833 49.0833 53.5167 48.45 52.45 48.05C51.3833 47.6167 50.35 47.4 49.35 47.4C48.0833 47.4 47.05 47.7 46.25 48.3C45.45 48.9 45.05 49.6833 45.05 50.65C45.05 51.3167 45.25 51.8667 45.65 52.3C46.05 52.7333 46.5667 53.1167 47.2 53.45C47.8667 53.75 48.6 54.0167 49.4 54.25C50.2333 54.4833 51.05 54.7333 51.85 55C55.05 56.0667 57.3833 57.5 58.85 59.3C60.35 61.0667 61.1 63.3833 61.1 66.25C61.1 68.1833 60.7667 69.9333 60.1 71.5C59.4667 73.0667 58.5167 74.4167 57.25 75.55C56.0167 76.65 54.4833 77.5 52.65 78.1C50.85 78.7333 48.8 79.05 46.5 79.05C41.7333 79.05 37.3167 77.6333 33.25 74.8L37.45 66.9C38.9167 68.2 40.3667 69.1667 41.8 69.8C43.2333 70.4333 44.65 70.75 46.05 70.75C47.65 70.75 48.8333 70.3833 49.6 69.65C50.4 68.9167 50.8 68.0833 50.8 67.15C50.8 66.5833 50.7 66.1 50.5 65.7C50.3 65.2667 49.9667 64.8833 49.5 64.55C49.0333 64.1833 48.4167 63.85 47.65 63.55C46.9167 63.25 46.0167 62.9167 44.95 62.55C43.6833 62.15 42.4333 61.7167 41.2 61.25C40 60.75 38.9167 60.1 37.95 59.3C37.0167 58.5 36.25 57.5 35.65 56.3C35.0833 55.0667 34.8 53.5167 34.8 51.65C34.8 49.7833 35.1 48.1 35.7 46.6C36.3333 45.0667 37.2 43.7667 38.3 42.7C39.4333 41.6 40.8 40.75 42.4 40.15C44.0333 39.55 45.85 39.25 47.85 39.25C49.7167 39.25 51.6667 39.5167 53.7 40.05C55.7333 40.55 57.6833 41.3 59.55 42.3L55.65 49.95Z" fill="white"/>
<path d="M41.25 110.3L47.75 134.65L55.75 110.3H63.55L71.55 134.65L78.05 110.3H88.3L77.05 148H67.05L59.65 126.15L52.25 148H42.25L31 110.3H41.25ZM112.074 110.3V148H102.274V110.3H112.074ZM157.1 122.9C154.833 120.133 152.033 118.75 148.7 118.75C147.233 118.75 145.867 119.017 144.6 119.55C143.367 120.083 142.3 120.817 141.4 121.75C140.5 122.65 139.783 123.733 139.25 125C138.75 126.267 138.5 127.633 138.5 129.1C138.5 130.6 138.75 131.983 139.25 133.25C139.783 134.517 140.5 135.617 141.4 136.55C142.333 137.483 143.417 138.217 144.65 138.75C145.883 139.283 147.217 139.55 148.65 139.55C151.783 139.55 154.6 138.217 157.1 135.55V147.15L156.1 147.5C154.6 148.033 153.2 148.417 151.9 148.65C150.6 148.917 149.317 149.05 148.05 149.05C145.45 149.05 142.95 148.567 140.55 147.6C138.183 146.6 136.083 145.217 134.25 143.45C132.45 141.65 131 139.533 129.9 137.1C128.8 134.633 128.25 131.95 128.25 129.05C128.25 126.15 128.783 123.5 129.85 121.1C130.95 118.667 132.4 116.583 134.2 114.85C136.033 113.083 138.15 111.717 140.55 110.75C142.95 109.75 145.467 109.25 148.1 109.25C149.6 109.25 151.067 109.417 152.5 109.75C153.967 110.05 155.5 110.533 157.1 111.2V122.9ZM184.711 124.85H198.861V110.3H208.661V148H198.861V132.45H184.711V148H174.911V110.3H184.711V124.85Z" fill="#012440"/>
<path d="M44.75 176.3V205.7H56.5V214H34.95V176.3H44.75ZM93.6238 200L89.2238 187.45L84.8238 200H93.6238ZM96.2238 207.45H82.2238L79.9738 214H69.5238L83.8738 176.3H94.5738L108.924 214H98.4738L96.2238 207.45ZM133.012 206.4H135.162C137.628 206.4 139.395 206.083 140.462 205.45C141.528 204.817 142.062 203.8 142.062 202.4C142.062 201 141.528 199.983 140.462 199.35C139.395 198.717 137.628 198.4 135.162 198.4H133.012V206.4ZM133.012 191.1H134.812C137.878 191.1 139.412 189.883 139.412 187.45C139.412 185.017 137.878 183.8 134.812 183.8H133.012V191.1ZM123.212 176.3H137.812C141.278 176.3 143.912 177.133 145.712 178.8C147.512 180.467 148.412 182.867 148.412 186C148.412 187.9 148.062 189.483 147.362 190.75C146.695 191.983 145.662 193.033 144.262 193.9C145.662 194.167 146.845 194.583 147.812 195.15C148.812 195.683 149.612 196.35 150.212 197.15C150.845 197.95 151.295 198.85 151.562 199.85C151.828 200.85 151.962 201.917 151.962 203.05C151.962 204.817 151.645 206.383 151.012 207.75C150.412 209.117 149.545 210.267 148.412 211.2C147.312 212.133 145.962 212.833 144.362 213.3C142.762 213.767 140.962 214 138.962 214H123.212V176.3Z" fill="white"/>
<path d="M94.6307 52.5039C96.9305 55.5974 95.6327 60.4561 91.732 63.3561C87.8312 66.2562 82.8046 66.0994 80.5047 63.0059C78.2048 59.9124 80.8215 57.8387 83.4034 52.1536C84.994 46.9514 92.3308 49.4104 94.6307 52.5039Z" fill="#65DB09"/>
<ellipse cx="83.6788" cy="66.1607" rx="8.51366" ry="7.88302" transform="rotate(-36.629 83.6788 66.1607)" fill="#65DB09"/>
<path d="M106.589 41.2499C102.969 45.7824 106.148 51.4004 99.8028 56.1178C93.4575 60.8352 87.3946 65.1811 84.7971 61.6872C82.1995 58.1934 87.0899 50.5162 90.8792 43.9716C95.6346 38.3025 103.991 37.756 106.589 41.2499Z" fill="#65DB09"/>
<path d="M85.5938 51.5288C86.719 49.5871 88.8338 48.4356 91.0753 48.5442L96.2297 48.7937C96.662 48.8146 96.8654 49.3376 96.5607 49.6451L75.514 70.885C75.1012 71.3016 74.4322 70.7898 74.7263 70.2824L85.5938 51.5288Z" fill="#DE9C00"/>
<path d="M94.27 44.6731C96.2672 41.7796 99.4328 39.9076 102.931 39.5515L105.225 39.318C105.69 39.2706 105.96 39.831 105.633 40.1652L81.7406 64.5728C81.3124 65.0102 80.6241 64.4428 80.9718 63.939L94.27 44.6731Z" fill="#F38B6A"/>
<g filter="url(#filter0_d_476_158)">
<path d="M107.611 37.1365C108.551 36.1762 110.183 36.842 110.183 38.1859V75.59C110.183 76.4185 109.511 77.09 108.683 77.09H72.0581C70.7293 77.09 70.0567 75.49 70.9863 74.5406L107.611 37.1365Z" fill="#0C2340"/>
<path d="M107.182 74.0901H75.6267L107.182 41.8625V74.0901Z" stroke="white" stroke-width="6"/>
</g>
<defs>
<filter id="filter0_d_476_158" x="70.5551" y="36.683" width="40.6276" height="42.407" filterUnits="userSpaceOnUse" color-interpolation-filters="sRGB">
<feFlood flood-opacity="0" result="BackgroundImageFix"/>
<feColorMatrix in="SourceAlpha" type="matrix" values="0 0 0 0 0 0 0 0 0 0 0 0 0 0 0 0 0 0 127 0" result="hardAlpha"/>
<feOffset dx="1" dy="2"/>
<feComposite in2="hardAlpha" operator="out"/>
<feColorMatrix type="matrix" values="0 0 0 0 0.870588 0 0 0 0 0.611765 0 0 0 0 0 0 0 0 1 0"/>
<feBlend mode="normal" in2="BackgroundImageFix" result="effect1_dropShadow_476_158"/>
<feBlend mode="normal" in="SourceGraphic" in2="effect1_dropShadow_476_158" result="shape"/>
</filter>
</defs>
</svg>
